<svg width="339" height="140" viewBox="0 0 339 140" fill="none" xmlns="http://www.w3.org/2000/svg">
<path opacity="0.4" d="M87.3953 140C126.543 140 158.278 138.147 158.278 135.862C158.278 133.576 126.543 131.723 87.3953 131.723C48.248 131.723 16.5128 133.576 16.5128 135.862C16.5128 138.147 48.248 140 87.3953 140Z" fill="#8A1114"/>
<path d="M66.6997 27.4339C63.8519 29.7809 61.0698 33.5647 62.7003 37.6702C64.3308 41.7757 74.7645 42.1888 76.958 40.4998C79.8095 38.3063 77.2906 28.538 75.0679 28.4795C74.8997 24.8566 69.0797 25.4707 66.6997 27.4339Z" fill="#263238"/>
<path d="M62.7113 66.9715C62.7113 66.9715 63.8555 87.7877 65.1168 99.0586C65.2448 109.642 67.6759 133.551 67.6759 133.551H70.3483C70.7979 121.688 74.0991 110.611 71.9056 100.148C77.0238 79.6023 73.5179 66.9861 73.5179 66.9861L62.7113 66.9715Z" fill="#FFB573"/>
<path d="M65.6213 66.9861C65.6213 66.9861 71.1233 90.0762 72.6295 99.9104C74.2161 110.242 76.5777 130.29 76.4681 133.544H78.7749C78.7749 133.544 82.65 113.261 79.0637 100.276C82.0212 71.0294 74.7242 67.008 74.7242 67.008L65.6213 66.9861Z" fill="#FFB573"/>
<path d="M52.4275 40.2804C52.2556 39.0338 49.9671 38.9278 49.9671 38.9278L48.8703 38.3757C48.6778 38.2579 48.447 38.2194 48.2267 38.2685C48.0064 38.3176 47.8137 38.4505 47.6895 38.6389L47.3239 39.2458C47.2175 39.4847 47.1998 39.7537 47.2742 40.0044C47.3487 40.2551 47.5102 40.471 47.7297 40.6131L48.0624 40.8544C48.6284 41.2589 49.298 41.4935 49.9927 41.5307L51.0053 41.5855C51.2277 41.5983 51.4506 41.5711 51.6634 41.5051C51.9153 41.4259 52.1302 41.2584 52.2686 41.0334C52.407 40.8084 52.4595 40.541 52.4165 40.2804H52.4275Z" fill="#FFB573"/>
<path d="M64.4807 47.5738C64.3418 47.7163 64.2687 47.7858 64.1663 47.8772L63.8775 48.1331C63.6874 48.294 63.49 48.4438 63.2962 48.5937C62.9014 48.8862 62.4992 49.1567 62.0861 49.4126C61.2571 49.9116 60.3862 50.3373 59.4832 50.6849C57.6848 51.3845 55.7755 51.7559 53.8459 51.7816H53.6778C53.5897 51.7797 53.5017 51.7724 53.4145 51.7597C53.2428 51.7345 53.0747 51.6891 52.9137 51.6244C52.6426 51.5127 52.3947 51.3515 52.1825 51.1491C51.9078 50.8793 51.6837 50.5623 51.5208 50.2133C51.2928 49.7189 51.1223 49.2001 51.0127 48.6668C50.8188 47.7491 50.6966 46.8178 50.6471 45.8811C50.5481 44.0871 50.5848 42.2882 50.7568 40.4998C50.7771 40.2999 50.8703 40.1145 51.0184 39.9788C51.1666 39.8431 51.3595 39.7666 51.5604 39.7639C51.7613 39.7612 51.9562 39.8325 52.108 39.9641C52.2598 40.0957 52.3579 40.2786 52.3836 40.4778V40.4998C52.581 42.2034 52.8077 43.9326 53.1148 45.5887C53.2501 46.3907 53.437 47.1832 53.6741 47.9613C53.7685 48.2795 53.8985 48.5861 54.0616 48.8752C54.1274 48.9812 54.1932 49.0324 54.164 48.9959C54.1156 48.9435 54.0554 48.9034 53.9885 48.8789C53.9292 48.852 53.8665 48.8335 53.8021 48.824H53.7034C54.4893 48.7523 55.2689 48.6227 56.0358 48.4365C56.7957 48.2467 57.541 48.0024 58.2658 47.7054C58.9876 47.3964 59.6833 47.0296 60.346 46.6086C60.6786 46.4039 61.0004 46.1882 61.3111 45.9579C61.4646 45.8446 61.6109 45.7276 61.7571 45.6106L61.9691 45.4351L62.13 45.2925L62.225 45.2084C62.5439 44.9229 62.9616 44.7732 63.3892 44.7912C63.8168 44.8092 64.2205 44.9935 64.5142 45.3048C64.8079 45.6162 64.9684 46.0299 64.9614 46.4578C64.9545 46.8858 64.7807 47.2941 64.477 47.5957L64.4807 47.5738Z" fill="#FFB573"/>
<path d="M66.2793 43.5158C63.3876 43.0332 60.3533 45.0001 58.7813 46.6013C57.9697 49.0434 60.569 52.0119 60.569 52.0119C60.569 52.0119 64.2723 49.738 65.6067 48.1843C66.941 46.6306 67.9464 43.7937 66.2793 43.5158Z" fill="#E0E0E0"/>
<path d="M75.2361 66.7083C75.2361 66.7083 79.316 69.6037 80.0837 79.2294C80.3908 83.0205 80.9428 98.1446 82.1054 104.652C77.9194 107.642 65.3873 107.233 63.4241 105.485C63.9798 92.3246 58.9494 74.8681 62.5979 66.8399C68.6373 66.0978 75.2361 66.7083 75.2361 66.7083Z" fill="#263238"/>
<path opacity="0.2" d="M71.0977 94.3133C71.1525 88.7821 70.3373 81.1707 67.8623 76.6594C68.7068 82.2894 71.0977 94.3133 71.0977 94.3133Z" fill="black"/>
<path d="M60.6823 47.9759C60.6823 51.1089 58.1854 52.7541 61.0113 55.1669C61.1795 57.8722 61.3769 62.7161 62.2068 67.1287C63.0659 68.3242 69.3466 68.2255 75.8722 66.8107C75.0204 63.0269 75.3348 56.8632 77.5685 48.4329C77.6875 47.965 77.7086 47.4777 77.6304 47.0013C77.5523 46.5249 77.3766 46.0698 77.1144 45.6645C76.8522 45.2591 76.5091 44.9123 76.1066 44.6458C75.7041 44.3792 75.251 44.1986 74.7754 44.1154C74.238 44.0203 73.6787 43.9326 73.0865 43.8595C71.0456 43.5586 68.9857 43.4047 66.9228 43.3988C66.2574 43.3988 65.5665 43.4427 64.9084 43.4866C63.7652 43.5572 62.6919 44.0608 61.9068 44.8948C61.1217 45.7288 60.6838 46.8305 60.6823 47.9759Z" fill="#E0E0E0"/>
<path d="M74.0136 53.4156L66.3548 55.15C66.0634 55.216 65.8807 55.5058 65.9467 55.7972L68.4263 66.7469C68.4923 67.0384 68.7821 67.2211 69.0735 67.1551L76.7323 65.4207C77.0237 65.3547 77.2065 65.065 77.1405 64.7735L74.6608 53.8238C74.5948 53.5323 74.305 53.3496 74.0136 53.4156Z" fill="#8A1114"/>
<path d="M67.6795 47.4385C67.6795 47.4385 66.4402 48.9227 65.4166 49.2664L65.2996 49.9975C66.594 49.8322 67.7887 49.2161 68.6739 48.2574L67.6795 47.4385Z" fill="#8A1114"/>
<path d="M64.3125 46.5428C64.3125 46.5428 64.2613 48.4731 64.7951 49.4163L64.3966 50.0451C63.5348 49.0643 63.0456 47.8116 63.0147 46.5063L64.3125 46.5428Z" fill="#8A1114"/>
<path d="M72.8342 36.9061C72.3443 38.851 71.7704 42.4373 73.0865 43.8521C73.0865 43.8521 68.184 45.1902 64.9888 49.5771C63.5265 44.9672 66.9374 43.3915 66.9374 43.3915C69.1711 43.0259 69.2003 41.3954 68.8932 39.8307L72.8342 36.9061Z" fill="#FFB573"/>
<path opacity="0.2" d="M71.2293 38.1016L68.8969 39.8381C68.9723 40.1992 69.0163 40.5661 69.0285 40.9348C69.8767 40.8763 71.0831 40.0391 71.222 39.1654C71.2861 38.8139 71.2886 38.4539 71.2293 38.1016Z" fill="black"/>
<path d="M75.1081 33.4404C74.1686 36.5917 73.8396 37.948 71.8618 39.1874C68.8859 41.0482 65.2813 39.1325 65.2594 35.7472C65.2594 32.6983 66.7838 28.07 70.1728 27.5655C73.5617 27.061 76.0623 30.2854 75.1081 33.4404Z" fill="#FFB573"/>
<path d="M72.6514 28.8377C71.7631 31.8757 72.5235 35.0526 74.3368 35.4182C76.8556 34.4787 76.7313 31.682 76.0879 30.4024C75.4445 29.1229 73.1632 27.0866 72.6514 28.8377Z" fill="#263238"/>
<path d="M74.0297 34.2959C72.6295 34.7602 72.3589 35.6997 72.3589 35.6997C72.3589 35.6997 73.3204 35.0197 74.2417 35.1477C74.108 34.8832 74.0355 34.5921 74.0297 34.2959Z" fill="#263238"/>
<path d="M70.5311 33.1443C70.4689 33.4038 70.2825 33.5793 70.1106 33.5391C69.9388 33.4989 69.8474 33.2466 69.9096 32.9871C69.9717 32.7275 70.1582 32.5484 70.33 32.5922C70.5018 32.6361 70.5786 32.8847 70.5311 33.1443Z" fill="#263238"/>
<path d="M67.2883 32.3729C67.2262 32.6324 67.0398 32.8079 66.8679 32.7641C66.6961 32.7202 66.6047 32.4752 66.6669 32.212C66.729 31.9488 66.9155 31.777 67.0873 31.8209C67.2591 31.8647 67.3542 32.1097 67.2883 32.3729Z" fill="#263238"/>
<path d="M67.1677 31.8538L66.5791 31.5138C66.5791 31.5138 66.7875 32.0841 67.1677 31.8538Z" fill="#263238"/>
<path d="M67.9025 32.797C67.5309 33.3323 67.0853 33.8123 66.5791 34.2227C66.6903 34.3515 66.8277 34.455 66.9822 34.5263C67.1367 34.5975 67.3046 34.6349 67.4748 34.6358L67.9025 32.797Z" fill="#ED893E"/>
<path d="M75.1264 36.6027C74.9328 36.83 74.6925 37.0129 74.4219 37.1391C74.1512 37.2652 73.8566 37.3317 73.5581 37.3338C72.794 37.3119 72.6624 36.4345 73.0828 35.7143C73.4484 35.0636 74.3111 34.2922 74.9765 34.6614C75.6419 35.0307 75.6455 36.0104 75.1264 36.6027Z" fill="#FFB573"/>
<path d="M71.1416 32.0256C71.1022 32.0061 71.072 31.972 71.0575 31.9305C70.9988 31.7394 70.8972 31.5642 70.7603 31.4184C70.6234 31.2727 70.4549 31.1602 70.2678 31.0897C70.2274 31.0785 70.193 31.0521 70.1718 31.0159C70.1506 30.9797 70.1444 30.9366 70.1545 30.8959C70.1591 30.8759 70.1678 30.857 70.1801 30.8404C70.1923 30.8239 70.2078 30.81 70.2257 30.7997C70.2435 30.7894 70.2633 30.7829 70.2837 30.7806C70.3042 30.7783 70.3249 30.7802 70.3446 30.7863C70.5838 30.8696 70.8001 31.0079 70.976 31.1902C71.1519 31.3724 71.2825 31.5935 71.3573 31.8355C71.3647 31.8549 71.3679 31.8756 71.3669 31.8963C71.3659 31.917 71.3605 31.9373 71.3513 31.9559C71.342 31.9744 71.329 31.9909 71.313 32.0041C71.297 32.0174 71.2785 32.0272 71.2586 32.0329C71.22 32.0453 71.1783 32.0427 71.1416 32.0256Z" fill="#263238"/>
<path d="M66.1112 30.8155C66.0697 30.8169 66.0292 30.8025 65.9978 30.7753C65.969 30.7453 65.9529 30.7054 65.9529 30.6638C65.9529 30.6222 65.969 30.5823 65.9978 30.5523C66.1608 30.3638 66.3669 30.2176 66.5986 30.1259C66.8303 30.0342 67.0807 29.9999 67.3285 30.0259C67.3703 30.0331 67.4076 30.0561 67.4328 30.0901C67.458 30.1242 67.4691 30.1666 67.4638 30.2087C67.4575 30.2499 67.4351 30.2869 67.4015 30.3116C67.3679 30.3362 67.3259 30.3466 67.2847 30.3403C67.0885 30.3207 66.8906 30.3491 66.7078 30.423C66.525 30.4968 66.3629 30.614 66.2355 30.7643C66.2197 30.7813 66.2004 30.7947 66.1789 30.8035C66.1575 30.8124 66.1343 30.8165 66.1112 30.8155Z" fill="#263238"/>
<path d="M70.4031 32.6288L69.8145 32.2852C69.8145 32.2852 70.0229 32.8591 70.4031 32.6288Z" fill="#263238"/>
<path d="M70.213 58.5851L67.2883 58.0184L67.6174 61.3781C67.6174 61.3781 69.8108 61.2831 71.0611 60.2814L71.1781 59.8427C71.0428 59.1152 70.8783 58.8483 70.213 58.5851Z" fill="#FFB573"/>
<path d="M65.5299 59.4515L65.8699 60.8736C65.9196 61.0779 66.044 61.2561 66.2186 61.3731C66.3932 61.4902 66.6053 61.5376 66.8131 61.5061L67.632 61.3781L67.303 58.0184L66.0563 58.4718C65.8638 58.5423 65.7039 58.681 65.6069 58.8616C65.5099 59.0422 65.4825 59.2521 65.5299 59.4515Z" fill="#FFB573"/>
<path d="M76.7532 46.5721C77.6419 48.2739 78.4174 50.0325 79.0747 51.8364C79.4037 52.7394 79.7144 53.6643 79.963 54.6112C80.2341 55.5923 80.4177 56.5955 80.5114 57.609C80.5333 57.8758 80.5443 58.15 80.548 58.4279V58.5266V58.6838C80.5391 58.7915 80.5195 58.898 80.4895 59.0018C80.4358 59.2034 80.352 59.3956 80.2409 59.5721C80.0715 59.8349 79.85 60.0601 79.5901 60.2338C79.2723 60.4453 78.9214 60.6022 78.5519 60.6981C78.272 60.7755 77.9875 60.8353 77.7001 60.8773C76.7036 61.0026 75.6981 61.0405 74.695 60.9906C72.7933 60.9028 70.9006 60.6756 69.0322 60.3106C68.8298 60.2771 68.6474 60.1685 68.5216 60.0065C68.3957 59.8445 68.3355 59.641 68.3531 59.4366C68.3706 59.2322 68.4645 59.042 68.6162 58.9038C68.7678 58.7656 68.9659 58.6896 69.1711 58.6911C70.999 58.6582 72.8488 58.6107 74.6292 58.4754C75.4816 58.4163 76.3284 58.2941 77.1627 58.1098C77.333 58.0704 77.5004 58.0191 77.6635 57.9563C77.7444 57.9339 77.8193 57.8939 77.8829 57.8393C77.8127 57.8808 77.7547 57.9401 77.7147 58.0111C77.6661 58.0881 77.6292 58.1719 77.605 58.2597C77.5921 58.309 77.5823 58.3591 77.5758 58.4096C77.5739 58.4339 77.5739 58.4584 77.5758 58.4827C77.5758 58.2963 77.5429 58.1171 77.5136 57.9124C77.1939 56.218 76.6952 54.5624 76.0257 52.9734C75.364 51.3246 74.6073 49.6466 73.8322 48.0636V48.0344C73.6751 47.6518 73.6679 47.2241 73.8119 46.8364C73.9559 46.4488 74.2407 46.1296 74.6095 45.9424C74.9783 45.7552 75.4041 45.7138 75.802 45.8265C76.2 45.9391 76.5409 46.1975 76.7569 46.5501L76.7532 46.5721Z" fill="#FFB573"/>
<path d="M74.9656 44.2287C77.0603 44.6162 77.9926 46.4989 79.5134 50.2571C79.0491 52.7869 75.3311 54.1177 75.3311 54.1177C75.3311 54.1177 73.1961 50.3339 72.7721 48.3269C72.348 46.3198 72.8525 43.8375 74.9656 44.2287Z" fill="#E0E0E0"/>
<path d="M70.5384 133.58C70.5212 133.532 70.488 133.49 70.4441 133.463C70.4002 133.436 70.3484 133.424 70.2971 133.431L67.8184 133.394C67.5648 133.377 67.3115 133.431 67.0873 133.551C65.9526 134.26 64.6781 134.715 63.351 134.886C62.8246 134.966 63.0622 135.854 64.3052 135.869C66.3561 135.891 66.729 135.737 68.4801 135.756C69.9754 135.774 69.2625 135.84 70.4506 135.869C70.7358 135.869 70.9697 135.69 70.9332 135.503L70.5384 133.58Z" fill="#263238"/>
<path d="M79.0893 133.58C79.0716 133.532 79.0382 133.491 78.9945 133.464C78.9508 133.437 78.8992 133.425 78.848 133.431L76.8263 133.394C76.5726 133.376 76.319 133.43 76.0952 133.551C75.364 134.059 75.4664 134.648 73.7993 134.886C73.2729 134.966 73.5325 135.854 74.7754 135.869C76.8263 135.891 76.702 135.756 77.5356 135.756C78.3691 135.756 77.8573 135.84 79.0491 135.869C79.3342 135.869 79.5645 135.69 79.5207 135.503L79.0893 133.58Z" fill="#263238"/>
<path d="M66.3305 48.0015C67.3688 48.0454 69.2734 48.8972 69.884 49.8075C70.7467 48.9118 74.1174 46.8317 74.1759 44.013C73.7633 43.6163 73.2434 43.3494 72.6806 43.2453C72.6806 43.2453 68.184 45.4205 66.3305 48.0015Z" fill="#FAFAFA"/>
<path d="M64.6488 47.8553C64.6488 47.8553 64.3673 45.5777 67.1238 43.3659C66.846 43.1393 65.7565 43.3952 65.7565 43.3952C65.7565 43.3952 62.5358 44.7807 62.6308 48.3671C63.2112 47.9403 63.9352 47.7567 64.6488 47.8553Z" fill="#FAFAFA"/>
<path d="M64.2394 48.8204C63.8409 49.0069 63.6837 50.3047 64.2394 50.6081C64.7951 50.9115 64.7402 49.6722 65.0619 49.2481C65.3837 48.8241 64.9376 48.495 64.2394 48.8204Z" fill="#8A1114"/>
<path d="M64.7293 49.3249C64.4441 49.6905 64.8134 50.9335 65.4275 50.9298C66.0417 50.9261 65.5116 49.8331 65.6323 49.292C65.7529 48.7509 65.2155 48.6815 64.7293 49.3249Z" fill="#8A1114"/>
<path d="M64.8134 50.2498C64.1297 49.1933 64.0822 54.7611 65.7383 56.9546C65.6286 54.794 66.7875 51.7304 64.8134 50.2498Z" fill="#8A1114"/>
<path d="M64.7512 50.2023C64.4478 49.1275 62.9233 53.8362 63.7678 56.1357C64.2467 54.2749 66.0344 51.979 64.7512 50.2023Z" fill="#8A1114"/>
<path d="M69.8474 35.6412C70.0067 35.5718 70.1596 35.4887 70.3044 35.3926C70.3126 35.3844 70.3191 35.3748 70.3235 35.3641C70.3279 35.3534 70.3302 35.342 70.3302 35.3304C70.3302 35.3189 70.3279 35.3075 70.3235 35.2968C70.3191 35.2861 70.3126 35.2764 70.3044 35.2683C70.2892 35.2488 70.2672 35.2358 70.2429 35.2317C70.2185 35.2277 70.1935 35.2329 70.1728 35.2464C69.8468 35.465 69.4759 35.6077 69.0874 35.664C68.6989 35.7203 68.3028 35.6888 67.9281 35.5717C67.9171 35.5669 67.9052 35.5643 67.8931 35.564C67.8811 35.5638 67.8691 35.566 67.8579 35.5704C67.8467 35.5748 67.8365 35.5814 67.8278 35.5898C67.8192 35.5982 67.8122 35.6082 67.8075 35.6192C67.7992 35.642 67.8004 35.6672 67.8107 35.6891C67.821 35.711 67.8395 35.728 67.8623 35.7362C68.5131 35.9504 69.2201 35.9165 69.8474 35.6412Z" fill="#263238"/>
<path d="M59.2382 38.2185H40.5607V38.8254H59.2382V38.2185Z" fill="#8A1114"/>
<path d="M58.7922 38.8254H41.0067L41.7891 39.2495H58.0099L58.7922 38.8254Z" fill="#8A1114"/>
<path opacity="0.2" d="M58.7922 38.8254H41.0067L41.7891 39.2495H58.0099L58.7922 38.8254Z" fill="black"/>
<path d="M46.5453 21.9612C46.436 21.9602 46.3315 21.9164 46.2542 21.8391C46.177 21.7618 46.1331 21.6573 46.1322 21.5481V20.1625C46.1331 20.0532 46.177 19.9487 46.2542 19.8714C46.3315 19.7942 46.436 19.7503 46.5453 19.7494C46.6545 19.7503 46.7591 19.7942 46.8363 19.8714C46.9136 19.9487 46.9574 20.0532 46.9584 20.1625V21.5481C46.9574 21.6573 46.9136 21.7618 46.8363 21.8391C46.7591 21.9164 46.6545 21.9602 46.5453 21.9612Z" fill="#263238"/>
<path d="M47.2106 20.0784V19.8956C47.2106 19.7179 47.0666 19.5739 46.8889 19.5739H46.2016C46.024 19.5739 45.8799 19.7179 45.8799 19.8956V20.0784C45.8799 20.2561 46.024 20.4001 46.2016 20.4001H46.8889C47.0666 20.4001 47.2106 20.2561 47.2106 20.0784Z" fill="#263238"/>
<path d="M47.207 24.9699V21.018C47.207 20.975 47.1901 20.9337 47.1601 20.9029C47.13 20.8722 47.0891 20.8544 47.0461 20.8535H46.0444C46.0014 20.8544 45.9605 20.8722 45.9304 20.9029C45.9004 20.9337 45.8835 20.975 45.8836 21.018V24.9699C45.8837 25.2669 45.8209 25.5606 45.6992 25.8315C45.5776 26.1025 45.4 26.3446 45.178 26.5419C44.9568 26.7406 44.7797 26.9836 44.6582 27.2549C44.5367 27.5263 44.4734 27.8202 44.4724 28.1176V38.2551H48.6144V28.1176C48.6142 27.8201 48.5512 27.526 48.4296 27.2545C48.308 26.983 48.1306 26.7402 47.9089 26.5419C47.6879 26.344 47.5112 26.1016 47.3902 25.8308C47.2693 25.5599 47.2068 25.2666 47.207 24.9699Z" fill="#8A1114"/>
<path d="M48.6145 29.3167H45.8799V35.8715H48.6145V29.3167Z" fill="#E0E0E0"/>
<path d="M52.4969 38.2185H52.0034C52.1677 38.2296 52.3326 38.2296 52.4969 38.2185Z" fill="#8A1114"/>
<path d="M55.4764 38.2185H54.9792C55.1448 38.2295 55.3109 38.2295 55.4764 38.2185Z" fill="#8A1114"/>
<path opacity="0.2" d="M51.8352 30.4865V32.1499C51.8352 33.4733 52.5883 34.5737 53.5425 34.7089V37.6336C53.5425 38.0833 53.1038 38.2112 52.7638 38.2405H54.7123C54.3723 38.2112 53.9336 38.0833 53.9336 37.6336V34.7089C54.8878 34.5773 55.6409 33.4769 55.6409 32.1499V30.4865H51.8352Z" fill="#8A1114"/>
<path d="M74.4866 28.9218C73.0243 29.5433 68.1255 29.7334 66.2062 29.3166C68.1913 26.5126 72.6514 25.6901 74.4866 28.9218Z" fill="#263238"/>
<path d="M79.0966 38.9387C79.0825 38.9385 79.0686 38.935 79.0559 38.9287C79.0433 38.9224 79.0322 38.9133 79.0235 38.9022C78.976 38.8364 77.8975 37.2497 77.8756 33.0017C77.8756 31.2286 77.3308 29.8029 76.4132 29.0827C76.1748 28.8857 75.8935 28.7473 75.5919 28.6787C75.2903 28.6102 74.9769 28.6133 74.6767 28.6878C74.665 28.6905 74.6528 28.6908 74.6409 28.6887C74.629 28.6866 74.6177 28.6823 74.6075 28.6758C74.5973 28.6694 74.5885 28.661 74.5816 28.6511C74.5746 28.6413 74.5697 28.6301 74.567 28.6184C74.5644 28.6066 74.5641 28.5944 74.5662 28.5826C74.5682 28.5707 74.5726 28.5593 74.5791 28.5491C74.5855 28.539 74.5939 28.5302 74.6038 28.5232C74.6136 28.5163 74.6247 28.5113 74.6365 28.5087C74.9627 28.4311 75.3024 28.4292 75.6294 28.5034C75.9564 28.5775 76.2621 28.7257 76.5229 28.9364C77.4917 29.6932 78.051 31.1738 78.062 32.998C78.0839 37.1803 79.1587 38.7815 79.1587 38.7962C79.1658 38.806 79.1708 38.8171 79.1735 38.8289C79.1761 38.8406 79.1765 38.8528 79.1744 38.8647C79.1724 38.8766 79.168 38.888 79.1616 38.8982C79.1551 38.9084 79.1467 38.9172 79.1368 38.9241C79.1246 38.9318 79.1109 38.9367 79.0966 38.9387Z" fill="#263238"/>
<path d="M105.404 17.417C106.424 18.8135 106.42 20.9887 106.073 22.1695C104.245 21.3397 104.53 18.9561 104.53 18.9561L105.404 17.417Z" fill="#263238"/>
<path d="M110.869 34.7016L111.922 35.8605L113.019 37.0377C113.75 37.8164 114.481 38.5768 115.234 39.308C115.6 39.6735 115.965 40.0391 116.357 40.3608C116.748 40.6825 117.088 41.0262 117.472 41.3223C117.856 41.6184 118.203 41.8817 118.543 42.1083C118.799 42.28 119.068 42.4316 119.347 42.5616L118.788 42.4739C118.622 42.4539 118.454 42.4913 118.313 42.5799C118.313 42.5799 118.4 42.5799 118.525 42.5068C118.864 42.2989 119.179 42.0536 119.464 41.7756C120.213 41.0644 120.913 40.3034 121.559 39.4981C122.257 38.6609 122.937 37.7689 123.613 36.8659C124.29 35.9629 124.966 35.038 125.631 34.1277L125.664 34.0875C125.897 33.78 126.231 33.564 126.607 33.4771C126.983 33.3901 127.377 33.4378 127.722 33.6117C128.066 33.7856 128.338 34.0749 128.492 34.429C128.645 34.7831 128.669 35.1797 128.56 35.5498C128.19 36.7052 127.761 37.8411 127.277 38.9534C126.798 40.0501 126.268 41.1468 125.668 42.2436C125.046 43.3842 124.327 44.4692 123.518 45.4863C123.036 46.0876 122.492 46.6365 121.895 47.1241C121.5 47.444 121.066 47.7141 120.605 47.9284C119.927 48.2443 119.184 48.397 118.437 48.3744C118.299 48.3692 118.162 48.3508 118.027 48.3195L117.874 48.2866C117.073 48.0947 116.298 47.8062 115.567 47.4275C114.954 47.1155 114.362 46.765 113.794 46.3783C112.752 45.6767 111.757 44.906 110.818 44.0715C109.897 43.2709 109.041 42.4337 108.211 41.5819C107.802 41.1505 107.393 40.7191 107.001 40.2731C106.61 39.8271 106.234 39.392 105.821 38.8839C105.36 38.2143 105.163 37.3977 105.268 36.5916C105.373 35.7854 105.773 35.0468 106.391 34.5182C107.009 33.9896 107.8 33.7083 108.613 33.7287C109.426 33.7491 110.202 34.0696 110.792 34.6285L110.869 34.7016Z" fill="#E0E0E0"/>
<path d="M127.269 36.1018L130.527 36.259L129.47 31.872C129.47 31.872 126.439 32.095 125.953 33.6524C125.902 33.8261 125.913 34.0119 125.982 34.1789L126.582 35.6156C126.639 35.7535 126.733 35.8724 126.855 35.9585C126.977 36.0446 127.12 36.0943 127.269 36.1018Z" fill="#FF8B7B"/>
<path d="M133.433 33.6561L132.804 32.1938C132.682 31.9103 132.463 31.6793 132.187 31.5414C131.91 31.4036 131.594 31.3679 131.294 31.4407L129.466 31.8903L130.523 36.2773L132.716 35.3926C132.879 35.3282 133.028 35.2316 133.153 35.1086C133.278 34.9855 133.377 34.8386 133.443 34.6765C133.51 34.5145 133.544 34.3406 133.542 34.1652C133.54 33.9899 133.503 33.8168 133.433 33.6561Z" fill="#FF8B7B"/>
<path d="M103.166 96.8541C99.7081 81.6423 97.5694 63.3011 97.5694 63.3011L111.75 63.0744C111.75 63.0744 111.553 87.7914 111.582 98.1446C111.619 108.911 112.365 132.604 112.365 132.604H108.062C108.062 132.604 102.508 110.161 103.166 96.8541Z" fill="#263238"/>
<path d="M102.062 75.8661L99.8177 79.1929C100.487 83.3459 101.28 87.9193 102.205 92.4013C102.593 85.5138 102.527 77.5112 102.062 75.8661Z" fill="black"/>
<path d="M118.104 134.714C118.104 134.714 112.178 133.317 111.732 132.378H108.442L108.464 135.862H110.496L110.807 135.54L111.323 135.862C112.968 135.862 117.34 135.796 118.375 135.427C118.395 135.294 118.381 135.159 118.334 135.034C118.286 134.909 118.207 134.799 118.104 134.714Z" fill="#263238"/>
<path d="M89.9763 96.4264C91.6178 81.1268 91.5666 70.9052 93.5663 63.3669L106.479 63.1731C106.479 63.1731 101.101 87.4404 98.604 97.5378C96.1071 107.635 91.8335 132.597 91.8335 132.597H87.8486C87.8486 132.597 86.5947 108.257 89.9763 96.4264Z" fill="#263238"/>
<path d="M92.5427 66.3463C92.2575 68.1742 91.2412 78.9881 90.1884 82.9255C98.7978 86.7458 111.959 85.2432 112.365 82.7646C112.244 78.1729 111.999 66.3463 111.999 66.3463H92.5427Z" fill="#E0E0E0"/>
<path opacity="0.1" d="M93.0216 68.3534C93.6228 69.3276 94.3491 70.2187 95.1822 71.0039C95.1822 71.0039 93.325 70.6712 93.0216 68.3534Z" fill="black"/>
<path opacity="0.1" d="M110.328 70.9015C110.822 70.1654 111.222 69.3709 111.52 68.5362C111.52 68.5362 111.604 70.4043 110.328 70.9015Z" fill="black"/>
<path opacity="0.1" d="M93.102 69.7316C93.3006 70.4639 93.5943 71.1669 93.9758 71.8228C93.6278 71.6112 93.3559 71.2949 93.1989 70.9192C93.0419 70.5436 93.008 70.1278 93.102 69.7316Z" fill="black"/>
<path d="M95.5478 134.714C95.5478 134.714 91.8517 133.317 91.4277 132.378H88.1374L88.0716 135.862H90.766L91.084 135.54L91.5922 135.862C93.2373 135.862 94.7544 135.796 95.8 135.427C95.8249 135.296 95.8147 135.161 95.7704 135.036C95.7261 134.911 95.6492 134.799 95.5478 134.714Z" fill="#263238"/>
<path d="M93.0911 32.8445C97.6535 32.2778 104.168 32.3327 108.537 33.0858C109.628 33.2837 110.63 33.8198 111.4 34.6182C112.171 35.4166 112.67 36.4369 112.829 37.5349C113.746 44.1336 112.957 55.6641 112.372 67.2713C102.391 70.6858 91.8627 67.2238 91.8627 67.2238C91.4971 64.884 92.316 57.2105 92.8644 53.116C92.0418 48.8862 90.3053 44.0423 89.1428 38.4233C89.0017 37.7947 88.9941 37.1435 89.1205 36.5118C89.2469 35.8801 89.5046 35.282 89.8767 34.7561C90.2489 34.2303 90.7273 33.7884 91.281 33.4591C91.8347 33.1298 92.4513 32.9204 93.0911 32.8445Z" fill="#263238"/>
<path opacity="0.1" d="M93.0911 32.8445C97.6535 32.2778 104.168 32.3327 108.537 33.0858C109.628 33.2837 110.63 33.8198 111.4 34.6182C112.171 35.4166 112.67 36.4369 112.829 37.5349C113.746 44.1336 112.957 55.6641 112.372 67.2713C102.391 70.6858 91.8627 67.2238 91.8627 67.2238C91.4971 64.884 92.316 57.2105 92.8644 53.116C92.0418 48.8862 90.3053 44.0423 89.1428 38.4233C89.0017 37.7947 88.9941 37.1435 89.1205 36.5118C89.2469 35.8801 89.5046 35.282 89.8767 34.7561C90.2489 34.2303 90.7273 33.7884 91.281 33.4591C91.8347 33.1298 92.4513 32.9204 93.0911 32.8445Z" fill="white"/>
<path d="M97.606 24.1327L102.797 28.3917C102.125 30.1794 101.913 32.0475 104.845 32.7531C105.576 33.7219 104.479 35.4218 103.177 36.0835C100.099 35.3816 98.3262 34.5554 97.1307 32.9139C97.5073 31.6271 98.1068 26.7758 97.606 24.1327Z" fill="#FF8B7B"/>
<path opacity="0.2" d="M99.7702 25.9094L102.797 28.3881C102.633 28.8014 102.511 29.23 102.432 29.6676C101.258 29.7517 99.6277 28.5709 99.5545 27.496C99.5279 26.9584 99.601 26.4205 99.7702 25.9094Z" fill="black"/>
<path d="M96.8602 21.23C97.3354 24.4873 97.4451 26.4176 99.2401 27.9457C101.942 30.2452 105.861 28.3734 106.373 25.0211C106.83 22.0123 105.978 17.1903 102.662 16.1813C101.926 15.9575 101.146 15.9243 100.394 16.0849C99.642 16.2455 98.9432 16.5945 98.3632 17.0993C97.7832 17.604 97.3409 18.2479 97.078 18.9704C96.8151 19.693 96.7402 20.4705 96.8602 21.23Z" fill="#FF8B7B"/>
<path d="M96.8309 22.7325C97.1656 23.0952 97.598 23.3534 98.076 23.476C98.5541 23.5986 99.0574 23.5804 99.5253 23.4235C98.7429 22.6302 99.5033 19.7275 98.721 18.5466C100.235 18.8464 106.128 19.7019 106.691 17.6583C107.301 15.4648 104.863 13.7136 103.495 13.5491C103.898 14.4631 103.861 15.1248 102.362 14.8287C100.863 14.5325 94.685 13.1068 95.3686 16.0022C93.3799 16.0022 93.2446 18.8976 94.6996 20.2831C95.4967 21.02 96.2113 21.8413 96.8309 22.7325Z" fill="#263238"/>
<path d="M95.7342 15.8633C94.5424 15.5671 94.9153 14.4704 95.1822 14.3571C94.0671 14.6276 93.6613 15.7243 95.0067 16.2288C96.352 16.7333 95.7342 15.8633 95.7342 15.8633Z" fill="#263238"/>
<path d="M95.9426 23.2297C96.0535 23.5866 96.234 23.918 96.4737 24.2048C96.7134 24.4915 97.0075 24.728 97.3391 24.9004C98.2348 25.3574 98.8855 24.6043 98.8014 23.6611C98.732 22.8093 98.1872 21.548 97.2075 21.4676C96.992 21.4569 96.7772 21.5003 96.5828 21.594C96.3885 21.6877 96.2207 21.8287 96.0948 22.0039C95.969 22.1792 95.8891 22.3833 95.8625 22.5974C95.8359 22.8116 95.8635 23.029 95.9426 23.2297Z" fill="#FF8B7B"/>
<path d="M101.434 21.347C101.456 21.6139 101.616 21.8186 101.799 21.804C101.982 21.7893 102.099 21.5554 102.077 21.2921C102.055 21.0289 101.894 20.8205 101.711 20.8352C101.529 20.8498 101.412 21.0801 101.434 21.347Z" fill="#263238"/>
<path d="M104.621 21.2702C104.643 21.5371 104.804 21.7418 104.987 21.7235C105.17 21.7052 105.283 21.4786 105.261 21.2117C105.239 20.9448 105.078 20.7438 104.896 20.7584C104.713 20.773 104.6 21.0033 104.621 21.2702Z" fill="#263238"/>
<path d="M103.974 21.6285C104.359 22.4143 104.851 23.1427 105.437 23.7927C105.002 24.2753 104.183 24.1583 104.183 24.1583L103.974 21.6285Z" fill="#FF5652"/>
<path d="M100.94 20.4988C100.915 20.5058 100.888 20.5058 100.863 20.4988C100.844 20.4916 100.826 20.4805 100.811 20.4661C100.796 20.4517 100.784 20.4345 100.775 20.4153C100.767 20.3962 100.763 20.3755 100.763 20.3547C100.763 20.3339 100.767 20.3132 100.776 20.2941C100.863 20.0594 101.005 19.8488 101.19 19.6798C101.375 19.5107 101.598 19.388 101.839 19.3217C101.881 19.3134 101.923 19.3219 101.958 19.3452C101.993 19.3685 102.018 19.4047 102.026 19.4459C102.034 19.4872 102.026 19.53 102.002 19.5649C101.979 19.5999 101.943 19.6242 101.902 19.6324C101.71 19.6865 101.535 19.7854 101.389 19.9208C101.244 20.0562 101.132 20.2242 101.064 20.4111C101.053 20.435 101.035 20.4556 101.014 20.471C100.992 20.4863 100.967 20.4959 100.94 20.4988Z" fill="#263238"/>
<path d="M106.471 20.0747C106.445 20.0749 106.419 20.0682 106.396 20.0554C106.373 20.0426 106.354 20.0241 106.34 20.0016C106.242 19.8307 106.106 19.6855 105.941 19.5781C105.776 19.4706 105.588 19.404 105.393 19.3838C105.372 19.3833 105.352 19.3788 105.333 19.3704C105.314 19.3621 105.297 19.3501 105.283 19.3352C105.268 19.3202 105.257 19.3026 105.25 19.2834C105.242 19.2641 105.239 19.2436 105.239 19.2229C105.241 19.1809 105.259 19.1413 105.29 19.1126C105.321 19.0839 105.362 19.0684 105.404 19.0694C105.652 19.092 105.89 19.1734 106.1 19.307C106.31 19.4405 106.485 19.6223 106.61 19.8371C106.631 19.8728 106.637 19.915 106.628 19.9552C106.618 19.9953 106.594 20.0303 106.559 20.0528C106.533 20.0702 106.502 20.078 106.471 20.0747Z" fill="#263238"/>
<path d="M97.1307 32.9139C97.1307 32.9139 102.457 41.0079 104.483 46.7183C106.479 40.0172 106.709 34.6541 104.848 32.7531C104.249 33.5098 101.836 34.5335 97.1307 32.9139Z" fill="#E0E0E0"/>
<path d="M95.3138 38.8949L94.7983 40.3572L94.2865 41.878C93.9465 42.8907 93.6358 43.907 93.347 44.905C93.2007 45.4059 93.0728 45.903 92.9558 46.3929C92.8388 46.8828 92.7255 47.369 92.645 47.8333C92.5646 48.2976 92.5025 48.7473 92.4622 49.1494C92.4414 49.4574 92.4414 49.7664 92.4622 50.0743L92.2722 49.5406C92.1186 49.2518 91.9614 49.175 91.9541 49.175C91.9468 49.175 92.0053 49.2481 92.1186 49.3285C92.4589 49.5292 92.8207 49.6911 93.1971 49.8111C94.1693 50.1378 95.1622 50.3991 96.1692 50.5935C97.2404 50.8055 98.3445 50.959 99.4595 51.1418C100.575 51.3246 101.722 51.4526 102.826 51.6098H102.878C103.263 51.6649 103.617 51.8548 103.876 52.1458C104.135 52.4367 104.282 52.8099 104.292 53.1993C104.302 53.5886 104.174 53.9689 103.931 54.2729C103.687 54.5768 103.344 54.7847 102.962 54.8598C101.771 55.0859 100.569 55.2518 99.3608 55.357C98.1544 55.4666 96.937 55.5215 95.705 55.5142C94.4059 55.5118 93.1094 55.3981 91.8298 55.1742C91.0785 55.034 90.3435 54.8171 89.6363 54.5271C89.1652 54.3329 88.7205 54.0798 88.3129 53.774C87.7122 53.3302 87.2239 52.7517 86.8871 52.085C86.825 51.9609 86.7748 51.8311 86.7373 51.6975L86.697 51.5476C86.4835 50.7518 86.3669 49.933 86.3497 49.1092C86.332 48.4222 86.3576 47.7347 86.4265 47.051C86.5434 45.8019 86.7449 44.5621 87.0297 43.3403C87.2893 42.1485 87.6183 40.9969 87.9729 39.86C88.1557 39.2933 88.3385 38.7303 88.5432 38.171C88.748 37.6117 88.9527 37.0743 89.2049 36.471C89.5348 35.683 90.1583 35.0542 90.9435 34.7176C91.7287 34.381 92.614 34.363 93.4122 34.6674C94.2104 34.9718 94.8589 35.5747 95.2207 36.3486C95.5824 37.1225 95.6289 38.0068 95.3504 38.8144L95.3138 38.8949Z" fill="#E0E0E0"/>
<path d="M103.346 52.0814L106.577 52.4835L104.793 56.6183C104.793 56.6183 101.843 55.8871 101.631 54.2639C101.61 54.0844 101.653 53.9033 101.752 53.7521L102.585 52.4397C102.665 52.3144 102.779 52.2143 102.914 52.1509C103.048 52.0876 103.198 52.0634 103.346 52.0814Z" fill="#FF8B7B"/>
<path d="M109.001 55.5434L108.131 56.8888C107.962 57.1474 107.707 57.3377 107.412 57.4261C107.116 57.5144 106.798 57.495 106.515 57.3713L104.793 56.6182L106.577 52.4835L108.592 53.7302C108.739 53.8211 108.867 53.9406 108.967 54.0815C109.068 54.2224 109.139 54.3819 109.177 54.5508C109.215 54.7196 109.219 54.8944 109.189 55.0649C109.159 55.2353 109.095 55.398 109.001 55.5434Z" fill="#FF8B7B"/>
<path d="M97.3903 31.6563C96.7111 31.7642 96.0886 32.0993 95.6245 32.6069C97.0721 34.5387 99.1356 35.9186 101.474 36.5186C101.306 35.9592 101.81 34.3251 102.366 33.7402C100.322 33.4367 97.3903 31.6563 97.3903 31.6563Z" fill="#FAFAFA"/>
<path d="M103.006 31.8574C103.699 31.9834 104.358 32.2537 104.94 32.6507C104.94 32.6507 106.987 34.9356 104.574 36.2261C104.738 35.6668 103.477 34.1752 102.348 33.7402C104.388 33.4367 103.006 31.8574 103.006 31.8574Z" fill="#FAFAFA"/>
<path d="M102.574 35.0416C100.958 34.1752 98.9586 33.2357 99.5143 34.7528C100.07 36.27 99.3352 36.7964 100.059 37.3119C100.783 37.8274 102.253 36.4126 102.739 36.2152C103.225 36.0177 102.574 35.0416 102.574 35.0416Z" fill="#8A1114"/>
<path d="M103.719 35.0307C104.951 34.2008 106.493 33.3015 106.219 34.7821C105.945 36.2627 106.625 36.7782 106.087 37.279C105.55 37.7799 104.168 36.3797 103.729 36.1823C103.291 35.9849 103.719 35.0307 103.719 35.0307Z" fill="#8A1114"/>
<path d="M102.355 34.9247C102.72 34.7053 103.612 34.4275 104.055 35.0234C104.497 35.6193 104.355 36.6173 103.744 36.738C103.526 36.782 103.3 36.7662 103.09 36.6922C102.88 36.6182 102.694 36.4887 102.552 36.3175C102.688 36.0991 102.742 35.8399 102.706 35.5853C102.67 35.3307 102.546 35.0969 102.355 34.9247Z" fill="#8A1114"/>
<path d="M92.0565 132.714L87.622 132.838L87.388 130.327L92.539 130.634L92.0565 132.714Z" fill="black"/>
<path d="M112.522 132.707L107.733 132.838L107.202 130.663L112.551 130.144L112.522 132.707Z" fill="black"/>
<path d="M102.084 51.2296C99.8449 50.5675 97.5359 50.1688 95.2041 50.0414C94.7069 50.0707 94.5168 61.305 94.557 65.9004C94.557 66.5218 101.708 66.3975 103.536 66.116C103.638 64.8329 103.66 55.4667 104.135 52.5384C104.172 52.3093 104.13 52.0746 104.017 51.8719C103.905 51.6691 103.727 51.5099 103.514 51.4197C103.061 51.2371 102.569 51.1717 102.084 51.2296Z" fill="white"/>
<path d="M139.516 33.2466H119.219V33.8243H139.516V33.2466Z" fill="#8A1114"/>
<path d="M139.092 33.8242H119.643L120.389 34.23H138.35L139.092 33.8242Z" fill="#8A1114"/>
<path opacity="0.2" d="M139.092 33.8242H119.643L120.389 34.23H138.35L139.092 33.8242Z" fill="black"/>
<path d="M130.205 25.0869C130.206 25.2526 130.157 25.4148 130.066 25.553C129.974 25.6911 129.843 25.799 129.691 25.8629C129.538 25.9268 129.369 25.9439 129.207 25.9121C129.044 25.8802 128.894 25.8007 128.777 25.6838C128.66 25.5669 128.579 25.4177 128.547 25.2552C128.514 25.0927 128.531 24.9242 128.594 24.771C128.657 24.6178 128.764 24.4868 128.902 24.3947C129.04 24.3025 129.202 24.2533 129.368 24.2533C129.477 24.2529 129.586 24.2741 129.688 24.3157C129.789 24.3574 129.882 24.4187 129.959 24.4962C130.037 24.5736 130.099 24.6657 130.141 24.767C130.183 24.8684 130.205 24.9771 130.205 25.0869Z" fill="#8A1114"/>
<path d="M138.142 30.5669C137.578 28.8213 136.506 27.2837 135.063 26.1507L135.29 25.8619C136.791 27.0407 137.906 28.6408 138.493 30.4573L138.142 30.5669Z" fill="#8A1114"/>
<path d="M133.795 25.3098C133.385 25.0836 132.959 24.8893 132.519 24.7286L132.643 24.3849C133.101 24.557 133.544 24.7635 133.97 25.0028L133.795 25.3098Z" fill="#8A1114"/>
<path d="M129.368 25.0869C127.166 25.0869 125.054 25.9616 123.497 27.5186C121.94 29.0755 121.065 31.1873 121.065 33.3892H137.67C137.67 31.1873 136.795 29.0755 135.238 27.5186C133.681 25.9616 131.57 25.0869 129.368 25.0869Z" fill="#8A1114"/>
<path opacity="0.3" d="M122.21 32.6471H124.356C124.43 32.6458 124.501 32.6189 124.558 32.5709C124.615 32.5229 124.653 32.4569 124.666 32.3839C125.098 30.11 126.454 28.1285 128.611 26.4066C128.66 26.3673 128.695 26.3131 128.71 26.2522C128.725 26.1914 128.72 26.1272 128.696 26.0694C128.672 26.0115 128.629 25.9632 128.575 25.9317C128.521 25.9002 128.458 25.8872 128.395 25.8948C126.764 26.1101 125.247 26.8504 124.074 28.004C122.901 29.1575 122.135 30.6615 121.892 32.2888C121.886 32.3338 121.89 32.3796 121.903 32.4229C121.917 32.4663 121.939 32.5063 121.969 32.5402C121.999 32.5741 122.036 32.6012 122.078 32.6197C122.119 32.6381 122.164 32.6474 122.21 32.6471Z" fill="white"/>
<path d="M102.954 25.1088C103.125 25.1162 103.297 25.1077 103.466 25.0832C103.489 25.0788 103.509 25.0655 103.522 25.0463C103.535 25.0271 103.54 25.0036 103.536 24.9808C103.53 24.957 103.515 24.9361 103.495 24.922C103.475 24.9079 103.45 24.9015 103.426 24.9041C103.044 24.9608 102.654 24.9305 102.286 24.8152C101.917 24.7 101.58 24.5029 101.298 24.2387C101.29 24.23 101.28 24.223 101.269 24.2182C101.258 24.2135 101.246 24.211 101.234 24.211C101.222 24.211 101.211 24.2135 101.2 24.2182C101.189 24.223 101.179 24.23 101.17 24.2387C101.154 24.2562 101.146 24.279 101.146 24.3027C101.146 24.3263 101.154 24.3491 101.17 24.3666C101.654 24.8243 102.289 25.0884 102.954 25.1088Z" fill="#263238"/>
<path d="M182.312 63.788C179.72 63.788 177.72 63.1 176.312 61.724C174.92 60.332 174.224 58.18 174.224 55.268C174.224 53.332 174.56 51.74 175.232 50.492C175.904 49.228 176.88 48.292 178.16 47.684C179.44 47.06 180.976 46.748 182.768 46.748C183.84 46.748 184.848 46.868 185.792 47.108C186.736 47.348 187.568 47.716 188.288 48.212C189.024 48.708 189.592 49.332 189.992 50.084C190.408 50.82 190.616 51.7 190.616 52.724H186.992C186.992 52.228 186.88 51.788 186.656 51.404C186.448 51.02 186.152 50.7 185.768 50.444C185.384 50.188 184.944 49.996 184.448 49.868C183.952 49.74 183.432 49.676 182.888 49.676C182.056 49.676 181.328 49.788 180.704 50.012C180.08 50.22 179.56 50.548 179.144 50.996C178.744 51.428 178.44 51.972 178.232 52.628C178.024 53.284 177.92 54.044 177.92 54.908V55.628C177.92 56.828 178.096 57.812 178.448 58.58C178.8 59.348 179.328 59.924 180.032 60.308C180.736 60.676 181.608 60.86 182.648 60.86C183.512 60.86 184.272 60.732 184.928 60.476C185.6 60.204 186.12 59.82 186.488 59.324C186.872 58.828 187.064 58.22 187.064 57.5V57.332H182.144V54.596H190.616V63.5H188.264L187.952 61.724C187.472 62.188 186.952 62.572 186.392 62.876C185.848 63.18 185.24 63.404 184.568 63.548C183.896 63.708 183.144 63.788 182.312 63.788ZM192.386 63.5L198.722 47.036H203.138L209.474 63.5H205.61L204.434 60.26H197.258L196.082 63.5H192.386ZM198.29 57.38H203.402L201.938 53.324C201.874 53.148 201.794 52.94 201.698 52.7C201.618 52.444 201.53 52.164 201.434 51.86C201.338 51.556 201.242 51.26 201.146 50.972C201.066 50.668 200.986 50.396 200.906 50.156H200.762C200.682 50.46 200.578 50.82 200.45 51.236C200.322 51.636 200.194 52.028 200.066 52.412C199.938 52.78 199.834 53.084 199.754 53.324L198.29 57.38ZM211.433 63.5V47.036H220.457C221.673 47.036 222.681 47.252 223.481 47.684C224.297 48.116 224.905 48.724 225.305 49.508C225.705 50.276 225.905 51.164 225.905 52.172C225.905 53.244 225.665 54.196 225.185 55.028C224.705 55.844 224.009 56.468 223.097 56.9L226.457 63.5H222.497L219.593 57.5H215.009V63.5H211.433ZM215.009 54.668H219.977C220.697 54.668 221.257 54.452 221.657 54.02C222.057 53.572 222.257 52.972 222.257 52.22C222.257 51.74 222.169 51.332 221.993 50.996C221.817 50.644 221.561 50.38 221.225 50.204C220.889 50.028 220.473 49.94 219.977 49.94H215.009V54.668ZM229.085 63.5V60.068H232.565V63.5H229.085ZM243.692 63.788C241.98 63.788 240.516 63.492 239.3 62.9C238.084 62.292 237.156 61.356 236.516 60.092C235.892 58.828 235.58 57.22 235.58 55.268C235.58 52.388 236.284 50.252 237.692 48.86C239.116 47.452 241.116 46.748 243.692 46.748C245.1 46.748 246.364 46.988 247.484 47.468C248.604 47.948 249.484 48.668 250.124 49.628C250.78 50.588 251.108 51.796 251.108 53.252H247.508C247.508 52.484 247.348 51.836 247.028 51.308C246.724 50.78 246.284 50.38 245.708 50.108C245.148 49.82 244.492 49.676 243.74 49.676C242.716 49.676 241.868 49.876 241.196 50.276C240.54 50.676 240.052 51.268 239.732 52.052C239.428 52.82 239.276 53.764 239.276 54.884V55.628C239.276 56.78 239.436 57.748 239.756 58.532C240.076 59.3 240.556 59.884 241.196 60.284C241.852 60.668 242.692 60.86 243.716 60.86C244.516 60.86 245.212 60.724 245.804 60.452C246.396 60.18 246.852 59.78 247.172 59.252C247.492 58.724 247.652 58.076 247.652 57.308H251.108C251.108 58.764 250.788 59.972 250.148 60.932C249.524 61.892 248.652 62.612 247.532 63.092C246.412 63.556 245.132 63.788 243.692 63.788ZM261.606 63.788C259.862 63.788 258.358 63.476 257.094 62.852C255.83 62.228 254.862 61.284 254.19 60.02C253.518 58.756 253.182 57.172 253.182 55.268C253.182 53.332 253.518 51.74 254.19 50.492C254.862 49.228 255.83 48.292 257.094 47.684C258.358 47.06 259.862 46.748 261.606 46.748C263.382 46.748 264.894 47.06 266.142 47.684C267.406 48.292 268.374 49.228 269.046 50.492C269.718 51.74 270.054 53.332 270.054 55.268C270.054 57.172 269.718 58.756 269.046 60.02C268.374 61.284 267.406 62.228 266.142 62.852C264.894 63.476 263.382 63.788 261.606 63.788ZM261.606 60.86C262.39 60.86 263.078 60.748 263.67 60.524C264.262 60.3 264.758 59.964 265.158 59.516C265.558 59.068 265.862 58.524 266.07 57.884C266.278 57.228 266.382 56.484 266.382 55.652V54.908C266.382 54.06 266.278 53.308 266.07 52.652C265.862 51.996 265.558 51.452 265.158 51.02C264.758 50.572 264.262 50.236 263.67 50.012C263.078 49.788 262.39 49.676 261.606 49.676C260.838 49.676 260.158 49.788 259.566 50.012C258.974 50.236 258.478 50.572 258.078 51.02C257.678 51.452 257.374 51.996 257.166 52.652C256.974 53.308 256.878 54.06 256.878 54.908V55.652C256.878 56.484 256.974 57.228 257.166 57.884C257.374 58.524 257.678 59.068 258.078 59.516C258.478 59.964 258.974 60.3 259.566 60.524C260.158 60.748 260.838 60.86 261.606 60.86ZM272.957 63.5V47.036H278.405L280.757 55.46C280.853 55.764 280.949 56.124 281.045 56.54C281.141 56.956 281.237 57.372 281.333 57.788C281.445 58.188 281.533 58.548 281.597 58.868H281.789C281.821 58.596 281.877 58.276 281.957 57.908C282.037 57.524 282.125 57.116 282.221 56.684C282.317 56.252 282.421 55.836 282.533 55.436L284.885 47.036H290.237V63.5H286.709V55.7C286.709 54.98 286.709 54.26 286.709 53.54C286.725 52.804 286.741 52.164 286.757 51.62C286.789 51.076 286.805 50.724 286.805 50.564H286.613C286.581 50.74 286.501 51.068 286.373 51.548C286.261 52.012 286.133 52.508 285.989 53.036C285.861 53.564 285.741 54.02 285.629 54.404L283.061 63.5H279.941L277.349 54.428C277.253 54.092 277.141 53.7 277.013 53.252C276.901 52.788 276.789 52.316 276.677 51.836C276.581 51.34 276.485 50.916 276.389 50.564H276.197C276.213 50.996 276.229 51.516 276.245 52.124C276.261 52.716 276.277 53.332 276.293 53.972C276.309 54.596 276.317 55.172 276.317 55.7V63.5H272.957ZM292.279 63.5L298.879 47.036H301.039L307.639 63.5H305.959L304.135 58.916H295.687L293.863 63.5H292.279ZM296.239 57.572H303.583L301.279 51.788C301.231 51.66 301.159 51.468 301.063 51.212C300.967 50.956 300.855 50.668 300.727 50.348C300.615 50.012 300.487 49.676 300.343 49.34C300.215 48.988 300.103 48.66 300.007 48.356H299.815C299.703 48.66 299.567 49.02 299.407 49.436C299.247 49.852 299.087 50.268 298.927 50.684C298.783 51.1 298.647 51.468 298.519 51.788L296.239 57.572ZM310.139 63.5V47.036H318.179C319.251 47.036 320.139 47.244 320.843 47.66C321.547 48.076 322.075 48.644 322.427 49.364C322.779 50.084 322.955 50.9 322.955 51.812C322.955 52.772 322.747 53.628 322.331 54.38C321.915 55.132 321.355 55.724 320.651 56.156C319.947 56.588 319.155 56.804 318.275 56.804H311.675V63.5H310.139ZM311.675 55.436H318.083C319.075 55.436 319.875 55.116 320.483 54.476C321.091 53.836 321.395 52.964 321.395 51.86C321.395 51.14 321.275 50.524 321.035 50.012C320.795 49.484 320.427 49.084 319.931 48.812C319.451 48.54 318.835 48.404 318.083 48.404H311.675V55.436ZM325.983 63.5V47.036H334.023C335.095 47.036 335.983 47.244 336.687 47.66C337.391 48.076 337.919 48.644 338.271 49.364C338.623 50.084 338.799 50.9 338.799 51.812C338.799 52.772 338.591 53.628 338.175 54.38C337.759 55.132 337.199 55.724 336.495 56.156C335.791 56.588 334.999 56.804 334.119 56.804H327.519V63.5H325.983ZM327.519 55.436H333.927C334.919 55.436 335.719 55.116 336.327 54.476C336.935 53.836 337.239 52.964 337.239 51.86C337.239 51.14 337.119 50.524 336.879 50.012C336.639 49.484 336.271 49.084 335.775 48.812C335.295 48.54 334.679 48.404 333.927 48.404H327.519V55.436Z" fill="white"/>
<path opacity="0.9" d="M198.952 92.692C197.811 92.692 196.83 92.484 196.008 92.068C195.198 91.652 194.568 91.0227 194.12 90.18C193.683 89.3373 193.464 88.2813 193.464 87.012C193.464 85.732 193.683 84.676 194.12 83.844C194.568 83.0013 195.198 82.372 196.008 81.956C196.83 81.54 197.811 81.332 198.952 81.332C200.094 81.332 201.07 81.54 201.88 81.956C202.702 82.372 203.331 83.0013 203.768 83.844C204.216 84.676 204.44 85.732 204.44 87.012C204.44 88.2813 204.216 89.3373 203.768 90.18C203.331 91.0227 202.702 91.652 201.88 92.068C201.07 92.484 200.094 92.692 198.952 92.692ZM198.952 91.38C199.55 91.38 200.088 91.3 200.568 91.14C201.059 90.98 201.47 90.7293 201.8 90.388C202.142 90.036 202.403 89.5987 202.584 89.076C202.766 88.5427 202.856 87.9133 202.856 87.188V86.852C202.856 86.116 202.766 85.4867 202.584 84.964C202.403 84.4307 202.142 83.9933 201.8 83.652C201.47 83.3 201.059 83.044 200.568 82.884C200.088 82.724 199.55 82.644 198.952 82.644C198.344 82.644 197.8 82.724 197.32 82.884C196.84 83.044 196.43 83.3 196.088 83.652C195.747 83.9933 195.486 84.4307 195.304 84.964C195.134 85.4867 195.048 86.116 195.048 86.852V87.188C195.048 87.9133 195.134 88.5427 195.304 89.076C195.486 89.5987 195.747 90.036 196.088 90.388C196.43 90.7293 196.84 90.98 197.32 91.14C197.8 91.3 198.344 91.38 198.952 91.38ZM208.714 92.5L213.05 81.524H215.05L219.402 92.5H217.754L216.682 89.78H211.338L210.282 92.5H208.714ZM211.834 88.484H216.17L214.842 85.044C214.81 84.948 214.762 84.8147 214.698 84.644C214.634 84.4733 214.564 84.2867 214.49 84.084C214.415 83.8707 214.34 83.6573 214.266 83.444C214.191 83.22 214.122 83.0173 214.058 82.836H213.962C213.887 83.0493 213.802 83.2947 213.706 83.572C213.61 83.8493 213.514 84.1213 213.418 84.388C213.322 84.644 213.242 84.8627 213.178 85.044L211.834 88.484ZM220.612 95.268V84.084H221.732L221.876 85.284H221.988C222.276 84.8147 222.644 84.468 223.092 84.244C223.54 84.0093 224.046 83.892 224.612 83.892C225.316 83.892 225.913 84.0467 226.404 84.356C226.894 84.6653 227.273 85.1507 227.54 85.812C227.806 86.4627 227.94 87.3107 227.94 88.356C227.94 89.3373 227.801 90.1533 227.524 90.804C227.257 91.444 226.878 91.9187 226.388 92.228C225.897 92.5373 225.326 92.692 224.676 92.692C224.313 92.692 223.972 92.6493 223.652 92.564C223.332 92.4787 223.044 92.3453 222.788 92.164C222.532 91.972 222.308 91.732 222.116 91.444H222.02V95.268H220.612ZM224.228 91.46C224.75 91.46 225.177 91.3587 225.508 91.156C225.838 90.9427 226.084 90.6173 226.244 90.18C226.404 89.732 226.484 89.1613 226.484 88.468V88.132C226.484 87.396 226.398 86.8093 226.228 86.372C226.057 85.924 225.806 85.604 225.476 85.412C225.156 85.22 224.756 85.124 224.276 85.124C223.753 85.124 223.321 85.2413 222.98 85.476C222.649 85.7 222.404 86.0413 222.244 86.5C222.094 86.9587 222.02 87.5187 222.02 88.18V88.42C222.02 89.0067 222.073 89.4973 222.18 89.892C222.297 90.276 222.457 90.5853 222.66 90.82C222.873 91.0547 223.113 91.22 223.38 91.316C223.646 91.412 223.929 91.46 224.228 91.46ZM229.69 95.268V84.084H230.81L230.954 85.284H231.066C231.354 84.8147 231.722 84.468 232.17 84.244C232.618 84.0093 233.125 83.892 233.69 83.892C234.394 83.892 234.991 84.0467 235.482 84.356C235.973 84.6653 236.351 85.1507 236.618 85.812C236.885 86.4627 237.018 87.3107 237.018 88.356C237.018 89.3373 236.879 90.1533 236.602 90.804C236.335 91.444 235.957 91.9187 235.466 92.228C234.975 92.5373 234.405 92.692 233.754 92.692C233.391 92.692 233.05 92.6493 232.73 92.564C232.41 92.4787 232.122 92.3453 231.866 92.164C231.61 91.972 231.386 91.732 231.194 91.444H231.098V95.268H229.69ZM233.306 91.46C233.829 91.46 234.255 91.3587 234.586 91.156C234.917 90.9427 235.162 90.6173 235.322 90.18C235.482 89.732 235.562 89.1613 235.562 88.468V88.132C235.562 87.396 235.477 86.8093 235.306 86.372C235.135 85.924 234.885 85.604 234.554 85.412C234.234 85.22 233.834 85.124 233.354 85.124C232.831 85.124 232.399 85.2413 232.058 85.476C231.727 85.7 231.482 86.0413 231.322 86.5C231.173 86.9587 231.098 87.5187 231.098 88.18V88.42C231.098 89.0067 231.151 89.4973 231.258 89.892C231.375 90.276 231.535 90.5853 231.738 90.82C231.951 91.0547 232.191 91.22 232.458 91.316C232.725 91.412 233.007 91.46 233.306 91.46ZM244.976 92.692C244.282 92.692 243.685 92.5373 243.184 92.228C242.693 91.9187 242.309 91.4387 242.032 90.788C241.765 90.1267 241.632 89.2733 241.632 88.228C241.632 87.236 241.77 86.42 242.048 85.78C242.325 85.14 242.709 84.6653 243.2 84.356C243.69 84.0467 244.261 83.892 244.912 83.892C245.285 83.892 245.632 83.9347 245.952 84.02C246.272 84.1053 246.554 84.2387 246.8 84.42C247.056 84.6013 247.28 84.8413 247.472 85.14H247.568V80.932H248.976V92.5H247.84L247.712 91.3H247.6C247.312 91.7693 246.938 92.1213 246.48 92.356C246.021 92.58 245.52 92.692 244.976 92.692ZM245.312 91.46C245.845 91.46 246.277 91.3427 246.608 91.108C246.938 90.8733 247.178 90.532 247.328 90.084C247.488 89.636 247.568 89.0813 247.568 88.42V88.164C247.568 87.588 247.509 87.1027 247.392 86.708C247.274 86.3133 247.114 85.9987 246.912 85.764C246.709 85.5293 246.474 85.364 246.208 85.268C245.941 85.172 245.658 85.124 245.36 85.124C244.837 85.124 244.41 85.2307 244.08 85.444C243.749 85.6467 243.504 85.972 243.344 86.42C243.184 86.8573 243.104 87.428 243.104 88.132V88.468C243.104 89.1933 243.189 89.78 243.36 90.228C243.53 90.6653 243.776 90.98 244.096 91.172C244.426 91.364 244.832 91.46 245.312 91.46ZM254.646 92.692C253.793 92.692 253.073 92.5373 252.486 92.228C251.91 91.908 251.467 91.4227 251.158 90.772C250.859 90.1213 250.71 89.2947 250.71 88.292C250.71 87.2787 250.859 86.452 251.158 85.812C251.467 85.1613 251.91 84.6813 252.486 84.372C253.073 84.052 253.793 83.892 254.646 83.892C255.499 83.892 256.214 84.052 256.79 84.372C257.377 84.6813 257.819 85.1613 258.118 85.812C258.417 86.452 258.566 87.2787 258.566 88.292C258.566 89.2947 258.417 90.1213 258.118 90.772C257.819 91.4227 257.377 91.908 256.79 92.228C256.214 92.5373 255.499 92.692 254.646 92.692ZM254.646 91.508C255.19 91.508 255.643 91.4013 256.006 91.188C256.369 90.9747 256.641 90.644 256.822 90.196C257.014 89.7373 257.11 89.1613 257.11 88.468V88.116C257.11 87.412 257.014 86.836 256.822 86.388C256.641 85.94 256.369 85.6093 256.006 85.396C255.643 85.1827 255.19 85.076 254.646 85.076C254.102 85.076 253.643 85.1827 253.27 85.396C252.907 85.6093 252.635 85.94 252.454 86.388C252.273 86.836 252.182 87.412 252.182 88.116V88.468C252.182 89.1613 252.273 89.7373 252.454 90.196C252.635 90.644 252.907 90.9747 253.27 91.188C253.643 91.4013 254.102 91.508 254.646 91.508ZM268.875 92.692C267.104 92.692 265.755 92.228 264.827 91.3C263.909 90.372 263.451 88.9427 263.451 87.012C263.451 85.7533 263.664 84.7027 264.091 83.86C264.517 83.0173 265.147 82.388 265.979 81.972C266.811 81.5453 267.824 81.332 269.019 81.332C269.765 81.332 270.443 81.412 271.051 81.572C271.659 81.732 272.181 81.9773 272.619 82.308C273.067 82.628 273.408 83.0333 273.643 83.524C273.888 84.0147 274.011 84.596 274.011 85.268H272.459C272.459 84.7987 272.373 84.3987 272.203 84.068C272.032 83.7267 271.787 83.4493 271.467 83.236C271.157 83.0227 270.795 82.8733 270.379 82.788C269.963 82.692 269.52 82.644 269.051 82.644C268.411 82.644 267.84 82.724 267.339 82.884C266.837 83.044 266.416 83.2947 266.075 83.636C265.733 83.9773 265.472 84.4147 265.291 84.948C265.109 85.4813 265.019 86.116 265.019 86.852V87.188C265.019 88.18 265.168 88.9853 265.467 89.604C265.776 90.2227 266.219 90.676 266.795 90.964C267.371 91.2413 268.064 91.38 268.875 91.38C269.696 91.38 270.373 91.268 270.907 91.044C271.44 90.8093 271.835 90.4573 272.091 89.988C272.357 89.5187 272.491 88.9267 272.491 88.212V88.02H268.619V86.724H274.027V92.5H272.875L272.715 91.108C272.427 91.4813 272.085 91.7853 271.691 92.02C271.296 92.2547 270.859 92.4253 270.379 92.532C269.909 92.6387 269.408 92.692 268.875 92.692ZM278.505 92.692C278.196 92.692 277.886 92.6547 277.577 92.58C277.268 92.5053 276.98 92.3827 276.713 92.212C276.446 92.0413 276.233 91.8067 276.073 91.508C275.913 91.1987 275.833 90.8147 275.833 90.356C275.833 89.78 275.972 89.3053 276.249 88.932C276.526 88.5587 276.91 88.2707 277.401 88.068C277.902 87.8547 278.494 87.7107 279.177 87.636C279.86 87.5507 280.601 87.508 281.401 87.508V86.548C281.401 86.2387 281.348 85.972 281.241 85.748C281.134 85.524 280.942 85.3533 280.665 85.236C280.398 85.108 280.014 85.044 279.513 85.044C279.033 85.044 278.649 85.108 278.361 85.236C278.084 85.3533 277.886 85.508 277.769 85.7C277.662 85.892 277.609 86.1053 277.609 86.34V86.58H276.249C276.238 86.5267 276.233 86.4733 276.233 86.42C276.233 86.3667 276.233 86.3027 276.233 86.228C276.233 85.716 276.372 85.2893 276.649 84.948C276.937 84.596 277.337 84.3347 277.849 84.164C278.361 83.9827 278.948 83.892 279.609 83.892C280.313 83.892 280.9 83.9933 281.369 84.196C281.849 84.3987 282.206 84.6867 282.441 85.06C282.686 85.4333 282.809 85.8813 282.809 86.404V90.964C282.809 91.1667 282.857 91.3107 282.953 91.396C283.049 91.4707 283.166 91.508 283.305 91.508H283.929V92.436C283.78 92.5 283.614 92.5533 283.433 92.596C283.252 92.6493 283.044 92.676 282.809 92.676C282.532 92.676 282.302 92.6173 282.121 92.5C281.94 92.3933 281.801 92.244 281.705 92.052C281.609 91.8493 281.545 91.6253 281.513 91.38H281.401C281.209 91.6467 280.964 91.8813 280.665 92.084C280.377 92.276 280.052 92.4253 279.689 92.532C279.326 92.6387 278.932 92.692 278.505 92.692ZM278.857 91.508C279.198 91.508 279.518 91.4547 279.817 91.348C280.126 91.2413 280.398 91.092 280.633 90.9C280.868 90.6973 281.054 90.4573 281.193 90.18C281.332 89.9027 281.401 89.5987 281.401 89.268V88.564C280.537 88.564 279.801 88.612 279.193 88.708C278.585 88.804 278.116 88.9747 277.785 89.22C277.465 89.4653 277.305 89.812 277.305 90.26C277.305 90.548 277.369 90.7827 277.497 90.964C277.625 91.1453 277.806 91.284 278.041 91.38C278.276 91.4653 278.548 91.508 278.857 91.508ZM285.112 92.5V84.084H286.248L286.376 85.476H286.488C286.573 85.2093 286.69 84.9587 286.84 84.724C286.989 84.4787 287.192 84.2813 287.448 84.132C287.704 83.972 288.018 83.892 288.392 83.892C288.552 83.892 288.696 83.908 288.824 83.94C288.962 83.9613 289.064 83.988 289.128 84.02V85.316H288.6C288.237 85.316 287.922 85.38 287.656 85.508C287.4 85.6253 287.186 85.796 287.016 86.02C286.845 86.244 286.717 86.5107 286.632 86.82C286.557 87.1293 286.52 87.46 286.52 87.812V92.5H285.112ZM293.468 92.692C292.657 92.692 291.975 92.5373 291.42 92.228C290.876 91.908 290.46 91.4227 290.172 90.772C289.895 90.1107 289.756 89.284 289.756 88.292C289.756 87.3 289.895 86.4787 290.172 85.828C290.46 85.1773 290.881 84.692 291.436 84.372C292.001 84.052 292.695 83.892 293.516 83.892C294.092 83.892 294.588 83.9667 295.004 84.116C295.431 84.2653 295.783 84.484 296.06 84.772C296.337 85.06 296.54 85.4067 296.668 85.812C296.807 86.2173 296.876 86.6813 296.876 87.204H295.452C295.452 86.7133 295.383 86.3133 295.244 86.004C295.116 85.684 294.908 85.4493 294.62 85.3C294.332 85.14 293.953 85.06 293.484 85.06C293.015 85.06 292.609 85.1667 292.268 85.38C291.927 85.5827 291.665 85.908 291.484 86.356C291.303 86.804 291.212 87.396 291.212 88.132V88.468C291.212 89.1613 291.297 89.7373 291.468 90.196C291.649 90.6547 291.911 90.9907 292.252 91.204C292.593 91.4173 293.009 91.524 293.5 91.524C293.98 91.524 294.364 91.4387 294.652 91.268C294.951 91.0973 295.164 90.852 295.292 90.532C295.431 90.212 295.5 89.828 295.5 89.38H296.876C296.876 89.8493 296.807 90.2867 296.668 90.692C296.54 91.0973 296.337 91.4493 296.06 91.748C295.783 92.0467 295.431 92.2813 295.004 92.452C294.577 92.612 294.065 92.692 293.468 92.692ZM293.324 95.316C293.079 95.316 292.828 95.3053 292.572 95.284C292.316 95.2627 292.076 95.2307 291.852 95.188V94.564H293.404C293.607 94.564 293.761 94.5267 293.868 94.452C293.975 94.3773 294.028 94.2653 294.028 94.116C294.028 93.988 293.985 93.892 293.9 93.828C293.815 93.764 293.649 93.732 293.404 93.732H292.588L292.844 92.324H293.804L293.692 93.124C293.969 93.124 294.22 93.156 294.444 93.22C294.668 93.284 294.849 93.3853 294.988 93.524C295.127 93.6733 295.196 93.8707 295.196 94.116C295.196 94.3507 295.137 94.5427 295.02 94.692C294.913 94.852 294.769 94.9747 294.588 95.06C294.407 95.156 294.204 95.22 293.98 95.252C293.767 95.2947 293.548 95.316 293.324 95.316ZM302.021 92.692C301.168 92.692 300.448 92.5373 299.861 92.228C299.285 91.908 298.842 91.4227 298.533 90.772C298.234 90.1213 298.085 89.2947 298.085 88.292C298.085 87.2787 298.234 86.452 298.533 85.812C298.842 85.1613 299.285 84.6813 299.861 84.372C300.448 84.052 301.168 83.892 302.021 83.892C302.874 83.892 303.589 84.052 304.165 84.372C304.752 84.6813 305.194 85.1613 305.493 85.812C305.792 86.452 305.941 87.2787 305.941 88.292C305.941 89.2947 305.792 90.1213 305.493 90.772C305.194 91.4227 304.752 91.908 304.165 92.228C303.589 92.5373 302.874 92.692 302.021 92.692ZM302.021 91.508C302.565 91.508 303.018 91.4013 303.381 91.188C303.744 90.9747 304.016 90.644 304.197 90.196C304.389 89.7373 304.485 89.1613 304.485 88.468V88.116C304.485 87.412 304.389 86.836 304.197 86.388C304.016 85.94 303.744 85.6093 303.381 85.396C303.018 85.1827 302.565 85.076 302.021 85.076C301.477 85.076 301.018 85.1827 300.645 85.396C300.282 85.6093 300.01 85.94 299.829 86.388C299.648 86.836 299.557 87.412 299.557 88.116V88.468C299.557 89.1613 299.648 89.7373 299.829 90.196C300.01 90.644 300.282 90.9747 300.645 91.188C301.018 91.4013 301.477 91.508 302.021 91.508ZM307.69 92.5V84.084H308.826L308.954 85.348H309.066C309.279 85.0067 309.519 84.7293 309.786 84.516C310.053 84.3027 310.346 84.148 310.666 84.052C310.986 83.9453 311.333 83.892 311.706 83.892C312.25 83.892 312.719 84.004 313.114 84.228C313.509 84.4413 313.802 84.8147 313.994 85.348H314.09C314.293 85.0067 314.527 84.7347 314.794 84.532C315.061 84.3187 315.359 84.1587 315.69 84.052C316.021 83.9453 316.373 83.892 316.746 83.892C317.258 83.892 317.706 83.9827 318.09 84.164C318.474 84.3347 318.773 84.6227 318.986 85.028C319.21 85.4227 319.322 85.956 319.322 86.628V92.5H317.914V86.852C317.914 86.5107 317.871 86.228 317.786 86.004C317.711 85.78 317.599 85.6093 317.45 85.492C317.301 85.364 317.125 85.2733 316.922 85.22C316.73 85.1667 316.522 85.14 316.298 85.14C315.925 85.14 315.578 85.236 315.258 85.428C314.949 85.62 314.698 85.8973 314.506 86.26C314.314 86.6227 314.218 87.0547 314.218 87.556V92.5H312.81V86.852C312.81 86.5107 312.767 86.228 312.682 86.004C312.597 85.78 312.485 85.6093 312.346 85.492C312.207 85.364 312.037 85.2733 311.834 85.22C311.642 85.1667 311.439 85.14 311.226 85.14C310.842 85.14 310.485 85.236 310.154 85.428C309.834 85.62 309.578 85.8973 309.386 86.26C309.194 86.6227 309.098 87.0547 309.098 87.556V92.5H307.69Z" fill="white"/>
</svg>
